# xmcd
# 
# Track frame offsets:
#     150
#     21041
#     44714
#     67659
#     96862
# 
# Disc length: 1482
# 
# Revision: 0
# Processed by: cddbd v1.5.2PL0 Copyright (c) Steve Scherf et al.
# Submitted via: BonkEnc v1.0.8
# 
DISCID=3805c805
DTITLE=Alis - Alis
DYEAR=2009
DGENRE=Rock
TTITLE0=Reencontro
TTITLE1=Janela
TTITLE2=Como em um filme
TTITLE3=Mãos vazias
TTITLE4=Faixa interativa
EXTD=
EXTT0=
EXTT1=
EXTT2=
EXTT3=
EXTT4=
PLAYORDER=
